<svg width="100" height="100" viewBox="0 0 100 100" fill="none" xmlns="http://www.w3.org/2000/svg">
<path d="M50 13C40.187 13 30.7759 16.8982 23.837 23.837C16.8982 30.7759 13 40.187 13 50C13 59.813 16.8982 69.2241 23.837 76.1629C30.7759 83.1018 40.187 87 50 87C59.813 87 69.2241 83.1018 76.1629 76.1629C83.1018 69.2241 87 59.813 87 50C87 40.187 83.1018 30.7759 76.1629 23.837C69.2241 16.8982 59.813 13 50 13Z" fill="#FCE0A2"/>
<path d="M80 33C79.7348 33 79.4804 33.1054 79.2929 33.2929C79.1054 33.4804 79 33.7348 79 34C79 34.2652 79.1054 34.5196 79.2929 34.7071C79.4804 34.8946 79.7348 35 80 35C80.2652 35 80.5196 34.8946 80.7071 34.7071C80.8946 34.5196 81 34.2652 81 34C81 33.7348 80.8946 33.4804 80.7071 33.2929C80.5196 33.1054 80.2652 33 80 33Z" fill="white"/>
<path d="M35.0002 72.2999C31.0002 72.2999 27.7002 68.9999 27.7002 64.9999V34.9999C27.7002 31 31.0002 27.7 35.0002 27.7H65.0002C69.0002 27.7 72.3002 31 72.3002 34.9999V64.9999C72.3002 68.9999 69.0002 72.2999 65.0002 72.2999H35.0002Z" fill="#127AD8"/>
<path d="M65 28.4C68.6 28.4 71.6 31.4 71.6 35V65C71.6 68.6 68.6 71.6 65 71.6H35C31.4 71.6 28.4 68.6 28.4 65V35C28.4 31.4 31.4 28.4 35 28.4H65ZM65 27H35C30.6 27 27 30.6 27 35V65C27 69.4 30.6 73 35 73H65C69.4 73 73 69.4 73 65V35C73 30.6 69.4 27 65 27Z" fill="#472B29"/>
<path d="M63.6002 68.5H36.5002C33.8002 68.5 31.7002 66.3 31.7002 63.7V36.3C31.7002 33.6 33.9002 31.5 36.5002 31.5H63.6002C66.3002 31.5 68.4002 33.7 68.4002 36.3V63.6C68.4002 66.3 66.3002 68.5 63.6002 68.5Z" fill="#FDFCEE"/>
<path d="M68.5 47.4C68.2 47.4 68 47.2 68 46.9V43C68 42.7 68.2 42.5 68.5 42.5C68.8 42.5 69 42.7 69 43V46.9C69 47.2 68.8 47.4 68.5 47.4Z" fill="#472B29"/>
<path d="M68.5 40.5C68.2 40.5 68 40.3 68 40V38C68 37.7 68.2 37.5 68.5 37.5C68.8 37.5 69 37.7 69 38V40C69 40.3 68.8 40.5 68.5 40.5Z" fill="#472B29"/>
<path d="M64 69H36C33.2 69 31 66.8 31 64V36C31 33.2 33.2 31 36 31H61.4C61.7 31 61.9 31.2 61.9 31.5C61.9 31.8 61.7 32 61.4 32H36C33.8 32 32 33.8 32 36V64C32 66.2 33.8 68 36 68H64C66.2 68 68 66.2 68 64V49.6C68 49.3 68.2 49.1 68.5 49.1C68.8 49.1 69 49.3 69 49.6V64C69 66.8 66.8 69 64 69Z" fill="#472B29"/>
<path d="M60.4994 51.5999V58.4999H56.3994L56.2994 51.5999C56.2994 49.8999 55.4994 48.5999 53.8994 48.5999C52.6994 48.5999 51.9994 49.3999 51.6994 50.1999C51.5994 50.4999 51.5994 50.8999 51.5994 51.1999V58.3999H47.3994C47.3994 58.3999 47.4994 46.6999 47.3994 45.4999H51.5994V47.4999C52.1994 46.4999 53.1994 45.3999 55.4994 45.3999C58.3994 45.4999 60.4994 47.2999 60.4994 51.5999Z" fill="#127AD8"/>
<path d="M60.4998 58.9999H56.3998C56.0998 58.9999 55.8998 58.7999 55.8998 58.4999L55.7998 51.5999C55.7998 50.8999 55.5998 49.0999 53.8998 49.0999C52.7998 49.0999 52.2998 49.9999 52.0998 50.3999C52.0998 50.4999 51.9998 50.7999 51.9998 51.2999V58.4999C51.9998 58.7999 51.7998 58.9999 51.4998 58.9999H47.2998C47.1998 58.9999 46.9998 58.8999 46.8998 58.8999C46.7998 58.7999 46.7998 58.6999 46.7998 58.4999C46.7998 58.3999 46.8998 46.7999 46.7998 45.5999C46.7998 45.4999 46.7998 45.2999 46.8998 45.1999C46.9998 45.0999 47.0998 44.9999 47.2998 44.9999H51.4998C51.7998 44.9999 51.9998 45.1999 51.9998 45.4999V46.0999C52.8998 45.2999 53.9998 44.8999 55.3998 44.8999C56.9998 44.8999 58.1998 45.3999 59.1998 46.2999C60.2998 47.3999 60.8998 49.1999 60.8998 51.4999V58.3999C60.9998 58.7999 60.7998 58.9999 60.4998 58.9999ZM56.8998 57.9999H59.9998V51.5999C59.9998 49.5999 59.4998 48.0999 58.5998 47.0999C57.8998 46.3999 56.7998 45.9999 55.5998 45.9999C53.4998 45.9999 52.5998 46.9999 52.0998 47.7999C51.8998 48.1999 51.3998 48.1999 51.1998 47.8999C51.0998 47.7999 51.0998 47.5999 51.1998 47.4999V46.0999H47.9998C47.9998 48.2999 47.9998 55.9999 47.9998 57.9999H51.1998V51.2999C51.1998 50.7999 51.2998 50.3999 51.3998 50.0999C51.8998 48.8999 52.8998 48.1999 54.0998 48.1999C55.8998 48.1999 56.9998 49.4999 56.9998 51.6999L56.8998 57.9999Z" fill="#472B29"/>
<path d="M42.4004 39.8C41.2004 39.8 40.4004 40.6 40.4004 41.8C40.4004 42.9 41.2004 43.8 42.4004 43.8C43.7004 43.8 44.4004 42.9 44.4004 41.8C44.4004 40.6 43.6004 39.8 42.4004 39.8Z" fill="#127AD8"/>
<path d="M42.4004 44.2C40.9004 44.2 39.9004 43.2 39.9004 41.7C39.9004 40.2 41.0004 39.2 42.4004 39.2C43.8004 39.2 44.9004 40.1999 44.9004 41.5999C44.9004 43.1999 43.8004 44.2 42.4004 44.2ZM42.4004 40.2999C41.5004 40.2999 40.9004 40.8999 40.9004 41.7999C40.9004 42.6999 41.5004 43.2999 42.4004 43.2999C43.3004 43.2999 44.0004 42.6999 44.0004 41.7999C43.9004 40.8999 43.3004 40.2999 42.4004 40.2999Z" fill="#472B29"/>
<path d="M40.4004 45.6001H44.6004V58.5001H40.4004V45.6001Z" fill="#127AD8"/>
<path d="M44.6004 59.0001H40.4004C40.1004 59.0001 39.9004 58.8001 39.9004 58.5001V45.6001C39.9004 45.3001 40.1004 45.1001 40.4004 45.1001H44.6004C44.9004 45.1001 45.1004 45.3001 45.1004 45.6001V58.5001C45.1004 58.8001 44.9004 59.0001 44.6004 59.0001ZM40.9004 58.0001H44.1004V46.1001H40.9004V58.0001Z" fill="#472B29"/>
<path d="M30.5297 85.1272C30.5513 85.6239 30.7688 86.0916 31.1343 86.4275C31.4997 86.7633 31.9832 86.9398 32.4784 86.9181C32.9736 86.8964 33.4399 86.6782 33.7747 86.3116C34.1095 85.945 34.2854 85.46 34.2638 84.9633C34.2421 84.4666 34.0247 83.9989 33.6592 83.663C33.2937 83.3272 32.8102 83.1507 32.3151 83.1724C31.8199 83.1941 31.3536 83.4123 31.0188 83.7789C30.6839 84.1455 30.508 84.6304 30.5297 85.1272Z" fill="#EE3E54"/>
<path d="M13.9133 25.8104C13.9241 26.0588 14.0328 26.2926 14.2156 26.4606C14.3983 26.6285 14.64 26.7167 14.8876 26.7059C15.1352 26.695 15.3684 26.5859 15.5358 26.4026C15.7032 26.2193 15.7912 25.9768 15.7803 25.7285C15.7695 25.4801 15.6608 25.2463 15.478 25.0783C15.2953 24.9104 15.0536 24.8222 14.806 24.833C14.5584 24.8439 14.3252 24.953 14.1578 25.1363C13.9904 25.3196 13.9024 25.562 13.9133 25.8104Z" fill="#F1BC19"/>
<path d="M20.1149 19.2437C19.8966 18.2737 19.3032 17.4305 18.4651 16.8994C17.627 16.3683 16.613 16.1929 15.646 16.4118C14.679 16.6308 13.8383 17.226 13.3089 18.0667C12.7795 18.9074 12.6046 19.9246 12.8229 20.8945C13.0411 21.8645 13.6345 22.7078 14.4726 23.2389C15.3107 23.77 16.3248 23.9453 17.2917 23.7264C18.2587 23.5075 19.0994 22.9122 19.6288 22.0716C20.1583 21.2309 20.3331 20.2137 20.1149 19.2437V19.2437Z" fill="#402A9C"/>
<path d="M22.8402 16.0368C22.8619 16.5335 23.0794 17.0013 23.4448 17.3371C23.8103 17.673 24.2938 17.8495 24.7889 17.8278C25.2841 17.806 25.7504 17.5879 26.0852 17.2213C26.4201 16.8547 26.596 16.3697 26.5743 15.873C26.5527 15.3763 26.3352 14.9085 25.9697 14.5727C25.6043 14.2368 25.1208 14.0603 24.6256 14.0821C24.1304 14.1038 23.6641 14.3219 23.3293 14.6885C22.9945 15.0551 22.8186 15.5401 22.8402 16.0368Z" fill="#EE3E54"/>
<path d="M71.6292 19.5252C71.6508 20.022 71.8683 20.4897 72.2338 20.8256C72.5992 21.1614 73.0827 21.3379 73.5779 21.3162C74.0731 21.2945 74.5394 21.0763 74.8742 20.7097C75.209 20.3431 75.385 19.8581 75.3633 19.3614C75.3416 18.8647 75.1242 18.397 74.7587 18.0611C74.3933 17.7252 73.9098 17.5488 73.4146 17.5705C72.9194 17.5922 72.4531 17.8104 72.1183 18.177C71.7835 18.5435 71.6075 19.0285 71.6292 19.5252ZM60.3211 81.9435C60.3644 82.9369 60.7993 83.8724 61.5302 84.5441C62.2612 85.2159 63.2281 85.5688 64.2185 85.5254C65.2088 85.4819 66.1414 85.0456 66.8111 84.3124C67.4807 83.5793 67.8326 82.6093 67.7893 81.6159C67.746 80.6224 67.311 79.687 66.5801 79.0152C65.8492 78.3435 64.8822 77.9905 63.8919 78.034C62.9015 78.0774 61.9689 78.5138 61.2993 79.2469C60.6296 79.9801 60.2777 80.9501 60.3211 81.9435Z" fill="#402A9C" fill-opacity="0.81"/>
<path d="M84.184 71.5144C84.2056 72.0111 84.4231 72.4788 84.7886 72.8147C85.154 73.1505 85.6375 73.327 86.1327 73.3053C86.6279 73.2836 87.0942 73.0654 87.429 72.6988C87.7638 72.3322 87.9397 71.8472 87.9181 71.3505C87.8964 70.8538 87.679 70.3861 87.3135 70.0502C86.948 69.7144 86.4645 69.5379 85.9694 69.5596C85.4742 69.5813 85.0079 69.7995 84.6731 70.1661C84.3382 70.5327 84.1623 71.0176 84.184 71.5144Z" fill="#EE3E54"/>
<path d="M52.7094 78.9937C52.7365 79.6145 53.0084 80.1992 53.4652 80.619C53.922 81.0389 54.5264 81.2595 55.1453 81.2323C55.7643 81.2052 56.3472 80.9325 56.7657 80.4742C57.1843 80.016 57.4042 79.4098 57.3771 78.7889C57.35 78.168 57.0782 77.5833 56.6214 77.1635C56.1645 76.7436 55.5602 76.523 54.9412 76.5502C54.3222 76.5774 53.7394 76.85 53.3208 77.3083C52.9023 77.7665 52.6824 78.3728 52.7094 78.9937V78.9937Z" fill="white"/>
<path d="M66.6105 76.0384C66.6214 76.2868 66.7301 76.5207 66.9128 76.6886C67.0956 76.8565 67.3373 76.9448 67.5849 76.9339C67.8325 76.923 68.0656 76.814 68.233 76.6307C68.4005 76.4474 68.4884 76.2049 68.4776 75.9565C68.4668 75.7082 68.358 75.4743 68.1753 75.3064C67.9926 75.1384 67.7508 75.0502 67.5032 75.061C67.2556 75.0719 67.0225 75.181 66.8551 75.3643C66.6877 75.5476 66.5997 75.7901 66.6105 76.0384Z" fill="#F1BC19"/>
</svg>
