<svg xmlns="http://www.w3.org/2000/svg" width="330" height="77" fill="none" viewBox="0 0 330 77"><path fill="#fff" d="M31.125 55.9688C31.2188 55.875 38.7188 48.5625 48.5625 39.4219C60.5156 38.1094 71.2031 38.2031 78.4219 38.5781C76.875 41.9062 75.9844 44.3438 76.4062 45.2344C76.8281 46.0781 77.5312 46.2656 78.6562 45.75C80.25 44.9531 82.2188 44.2031 84.0938 43.4531C87.5625 42.1406 90.6562 40.9688 90.75 39.4219C90.8906 38.1562 89.1094 37.2188 84.2812 36.7969C83.4844 36.75 82.6406 36.6562 81.7031 36.6094C82.6406 34.7812 83.7656 32.6719 84.8906 30.5156C90.3281 20.0625 96.8906 7.5 95.4375 3.65625C94.8281 2.0625 93.4219 1.59375 91.0312 2.48438C82.9688 5.57812 62.6719 23.4375 47.625 37.3594C44.4844 37.7344 41.25 38.2031 37.9219 38.7656C25.5 40.9219 12.3281 44.7188 0.5625 51.3281C0.046875 51.6094 -0.140625 52.2656 0.140625 52.7812C0.421875 53.2969 1.07812 53.4844 1.59375 53.2031C13.125 46.7344 26.0625 42.9844 38.2969 40.875C40.5469 40.4531 42.75 40.125 44.9531 39.8438C36.1406 48.0469 29.7188 54.375 29.6719 54.4219C29.25 54.8438 29.2031 55.5 29.625 55.9219C30.0469 56.3438 30.7031 56.3438 31.125 55.9688ZM91.7812 4.5C92.7656 4.07812 93.2812 4.125 93.4219 4.40625C94.5469 7.35938 88.2188 19.5 82.9688 29.5312C81.7031 32.0156 80.4844 34.3594 79.4062 36.4688C72.6562 36.0938 62.5781 35.9531 51.1406 37.0312C65.7656 23.5312 84.3281 7.3125 91.7812 4.5ZM80.6719 38.6719C81.9375 38.7656 83.1094 38.8594 84.0469 38.9531C87.375 39.2344 88.6406 39.2812 88.6406 39.2812C88.5938 39.4688 86.1562 40.4062 83.3438 41.4844C81.7031 42.0938 80.0156 42.75 78.4688 43.4531C78.7969 42.5156 79.5938 40.8281 80.6719 38.6719ZM100.549 32.0625C100.502 32.1094 96.1894 40.0781 97.5019 41.5312C98.0644 42.1875 98.7675 42 99.6113 41.25C100.408 40.5469 101.58 39.1875 102.846 37.7344C103.08 37.4531 107.158 33.375 107.158 33.375C106.221 37.4062 105.939 40.7812 107.393 42C108.939 43.2656 111.939 42.0938 117.283 36.9844C117.658 36.6094 117.658 36 117.33 35.625C116.955 35.25 116.346 35.2031 115.971 35.5781C111.471 39.8906 109.361 41.1094 108.611 40.5C107.861 39.8906 108.236 37.2188 109.033 33.7969C109.455 31.8281 109.08 30.8906 108.143 30.6562C106.689 30.3281 103.877 33.6094 101.393 36.4688C100.643 37.3125 99.9394 38.1562 99.33 38.8125C100.221 36.6562 102.236 33 102.236 33C102.471 32.5312 102.283 31.9219 101.814 31.6875C101.346 31.4531 100.783 31.5938 100.549 32.0625ZM134.113 5.15625C134.254 5.15625 134.394 5.15625 134.582 5.20312C135.238 5.29688 135.801 5.53125 136.269 5.90625C137.488 6.84375 137.957 8.57812 137.723 10.8281C137.582 12.8906 136.832 15.375 135.707 18.0469C133.035 24.2344 127.973 31.6406 121.504 36.9844C121.41 37.0781 121.316 37.125 121.176 37.1719C121.176 37.2188 121.129 37.3125 121.129 37.3594C122.301 36.5625 123.519 35.7656 124.41 35.25C128.394 32.9062 128.629 37.6875 128.629 37.6875C128.629 38.2031 128.207 38.6719 127.691 38.7188C127.176 38.7188 126.707 38.2969 126.707 37.7812C126.707 37.7812 126.613 36.1875 125.348 36.8906C123.941 37.7344 121.691 39.2344 120.098 40.5C120.004 40.6875 119.957 40.9219 119.863 41.1562C121.457 41.2969 123.848 41.2031 126.66 40.3594C129.238 39.6094 132.144 38.1562 135.051 35.625C135.473 35.2969 136.082 35.3438 136.41 35.7188C136.738 36.1406 136.738 36.75 136.316 37.0781C133.176 39.8438 130.035 41.3906 127.223 42.1875C123.894 43.2188 121.035 43.2188 119.254 43.0312C118.082 46.4062 116.863 49.9219 115.504 53.4844C115.738 53.4844 115.973 53.5781 116.16 53.7656C116.535 54.1406 116.488 54.75 116.113 55.125C115.363 55.8281 114.801 56.4844 114.379 56.9062C113.863 57.4688 113.535 57.8438 112.973 57.75C111.66 57.5625 112.035 56.7188 112.973 54.6562C113.207 54.0938 113.16 54.2344 113.301 53.9062C114.754 50.0625 116.113 46.3125 117.332 42.6562C117.191 42.6094 117.051 42.5156 116.91 42.375C116.441 41.8594 116.535 41.25 117.051 40.5938C117.285 40.3125 117.66 39.9844 118.082 39.6562C118.223 39.5625 118.316 39.4219 118.457 39.3281C119.535 35.9531 120.566 32.7188 121.551 29.625C126.051 15.3281 129.285 5.15625 134.113 5.15625ZM134.066 7.07812C130.691 7.07812 127.644 16.6875 123.379 30.2344C123.004 31.3594 122.629 32.5312 122.254 33.75C127.551 28.8281 131.629 22.5938 133.926 17.2969C135.004 14.7656 135.66 12.4688 135.848 10.6875C135.988 9.09375 135.754 7.92188 135.098 7.40625C134.91 7.26562 134.629 7.125 134.301 7.07812C134.207 7.07812 134.16 7.07812 134.066 7.07812ZM113.113 55.7344C112.926 55.7812 112.879 55.7812 113.207 55.8281H113.254C113.582 55.875 113.348 55.8281 113.16 55.7344H113.113ZM161.678 11.6719H161.724C161.818 11.6719 161.959 11.7188 162.053 11.7656C162.053 11.7656 162.053 11.7656 162.099 11.7656C162.099 11.7656 162.146 11.7656 162.146 11.8125H162.193C162.193 11.8125 162.193 11.8594 162.24 11.8594C162.287 11.9062 162.381 12 162.428 12.0469C162.662 12.375 162.662 12.75 162.521 13.0781C162.428 13.2188 161.959 14.4375 161.115 16.4531C177.474 15.7969 192.99 16.6406 193.084 16.6406C193.599 16.6875 194.021 17.1094 193.974 17.6719C193.974 18.1875 193.506 18.6094 192.99 18.5625C192.896 18.5625 176.912 17.6719 160.318 18.375C155.631 30.1875 145.318 57.9844 149.349 65.25C149.584 65.7188 149.396 66.3281 148.974 66.5625C148.506 66.8438 147.896 66.6562 147.662 66.1875C143.724 59.0625 151.693 35.5781 156.849 22.0781C152.303 29.5781 146.068 39.1875 142.131 40.4062C142.037 40.4531 141.896 40.4531 141.756 40.4531C141.099 40.4531 140.537 40.3594 140.068 40.125C139.365 39.7969 138.943 39.2812 138.756 38.5312C138.615 37.9688 138.709 37.2656 138.943 36.5156C139.365 35.3438 140.209 33.9375 141.521 32.3906C141.849 31.9688 142.459 31.9219 142.881 32.2969C143.256 32.625 143.303 33.2344 142.974 33.6094C141.849 34.9688 141.099 36.1875 140.771 37.125C140.631 37.5469 140.584 37.875 140.631 38.1094C140.678 38.25 140.724 38.3438 140.865 38.3906C141.053 38.4844 141.287 38.5312 141.615 38.5312C145.365 37.2656 152.256 25.9688 156.709 18.5625C148.881 19.0312 141.146 19.875 135.146 21.375C130.131 22.6875 128.303 22.9688 128.303 23.0156C128.349 23.2031 129.146 22.7344 130.412 22.7344C132.099 22.6406 134.162 22.4531 135.896 22.125C137.49 21.8438 138.849 21.8906 138.803 21.75C138.709 21.2344 139.084 20.7656 139.599 20.6719C140.115 20.5312 140.584 20.9062 140.678 21.4219C140.912 22.6406 138.896 23.5312 136.271 24C134.443 24.3281 132.24 24.5625 130.506 24.6094C128.349 24.7031 126.662 24.375 126.428 23.4844C126.193 22.5 128.256 21.1875 134.678 19.5469C141.099 17.9062 149.49 17.0156 157.928 16.5938C159.474 14.0156 160.599 12.2344 161.115 11.8594C161.209 11.7656 161.303 11.7188 161.396 11.7188C161.443 11.7188 161.443 11.6719 161.49 11.6719C161.537 11.6719 161.537 11.6719 161.537 11.6719C161.584 11.6719 161.584 11.6719 161.631 11.6719H161.678ZM148.553 22.5938C149.021 22.5469 149.396 22.875 149.537 23.3438C149.631 23.8594 149.303 24.375 148.787 24.4688C147.287 24.7969 145.974 27.6562 145.974 27.6562C145.74 28.125 145.131 28.3125 144.662 28.0781C144.193 27.8438 144.006 27.2812 144.24 26.8125C144.24 26.8125 145.974 23.1562 148.365 22.5938C148.412 22.5938 148.506 22.5938 148.553 22.5938ZM210.056 42.1875C205.556 45.9844 203.541 48.6562 203.119 50.3906C202.65 52.5 203.962 53.4844 206.306 53.6719C208.134 53.8125 210.619 53.3906 213.244 52.5938C219.384 50.7188 226.228 46.7344 226.275 43.125C226.322 39.0469 216.9 38.2969 207.009 37.5C198.9 36.8906 190.509 36.1875 187.509 33.9844C186.337 33.1406 186.15 31.9219 187.416 30.2344C191.072 25.3594 200.353 18.3281 210.384 12.6094C216.666 9 223.228 5.90625 228.853 4.17188C234.244 2.53125 238.65 2.10938 240.853 3.75C241.228 4.03125 241.556 4.40625 241.837 4.875C244.228 9.04688 221.775 29.9062 219.619 31.9688L219.478 32.0625C219.103 32.4375 219.103 33 219.478 33.3281C219.853 33.7031 220.462 33.7031 220.837 33.3281L220.978 33.2344C223.228 31.0781 246.572 9.375 243.525 4.03125C243.15 3.375 242.634 2.8125 242.072 2.39062C239.259 0.28125 234.244 0.65625 228.244 2.48438C222.525 4.26562 215.822 7.40625 209.4 11.0625C199.134 16.9219 189.619 24.1406 185.869 29.2031C183.853 31.875 184.275 33.8438 186.291 35.3438C189.759 37.9219 198.478 38.625 206.822 39.2812C215.822 39.9844 224.4 40.6875 224.353 43.125C224.353 45.8906 218.166 49.2188 212.681 50.9062C210.244 51.6094 207.994 52.0312 206.447 51.8906C205.462 51.7969 204.853 51.4688 204.994 50.7188C205.322 49.3594 207.197 47.0156 211.322 43.5C211.744 43.1719 211.744 42.6094 211.416 42.2344C211.041 41.9062 210.431 41.8594 210.056 42.1875ZM246.855 35.1562C245.167 32.8125 242.683 33.2812 240.621 34.7344C239.636 35.4375 238.792 36.375 238.183 37.2656C237.527 38.25 237.152 39.3281 237.246 40.1719C237.339 41.3906 238.183 42.1406 239.964 41.9531C243.152 41.625 245.964 39.4219 247.792 37.5469C247.558 40.5469 247.886 41.8125 249.292 42C250.324 42.1875 251.683 41.3906 253.792 40.1719C255.246 39.3281 257.074 38.25 259.371 37.125C259.839 36.8906 260.074 36.3281 259.839 35.8594C259.605 35.3906 258.996 35.1562 258.527 35.3906C256.183 36.5625 254.261 37.6406 252.808 38.4844C251.074 39.5156 249.949 40.1719 249.574 40.125C249.339 40.0781 249.527 38.5781 250.042 34.6406C250.089 34.2656 249.949 33.8906 249.621 33.7031C249.199 33.4219 248.589 33.5156 248.308 33.9375C248.308 33.9375 247.839 34.6406 246.996 35.5312C246.996 35.3906 246.949 35.25 246.855 35.1562ZM245.964 36.6562C244.417 38.2031 242.214 39.7969 239.777 40.0312C239.355 40.0781 239.167 40.0312 239.167 39.9844C239.121 39.5625 239.355 39 239.777 38.3438C240.292 37.5938 240.996 36.8438 241.746 36.3281C242.964 35.4375 244.417 35.0625 245.308 36.2812C245.449 36.5156 245.683 36.6562 245.964 36.6562ZM275.591 28.0312C271.654 32.7188 265.935 38.8125 263.919 37.9219C263.732 37.8281 263.732 37.5938 263.779 37.2188C263.919 36.5625 264.294 35.8125 264.857 34.9688C265.466 34.0781 266.31 33.0938 267.201 32.2031C269.779 29.7188 273.154 27.6094 275.591 28.0312ZM265.888 30.8438C264.857 31.8281 263.966 32.8594 263.31 33.8906C262.56 34.9219 262.091 35.9531 261.904 36.7969C261.669 38.1094 261.997 39.1406 263.169 39.6562C266.451 41.1562 274.513 32.2969 278.638 27.375C278.029 30.1406 277.044 34.1719 275.732 38.7188C272.544 39.5625 269.216 40.3125 265.888 41.0625C256.701 43.125 247.747 45.1406 242.732 49.0312C237.247 53.2969 236.357 59.5781 244.513 69.9375C259.747 89.4844 271.466 60.4219 277.279 40.3125C280.56 39.4219 283.654 38.3906 286.419 37.1719C286.935 36.9375 287.122 36.375 286.935 35.9062C286.701 35.4375 286.138 35.2031 285.669 35.4375C283.326 36.4688 280.654 37.3594 277.888 38.1562C280.044 30.375 281.263 24.375 281.357 23.8594C281.451 23.5312 281.31 23.1094 281.029 22.875C280.607 22.5469 279.997 22.6406 279.669 23.0625C279.669 23.0625 278.544 24.4688 276.951 26.4375C273.622 25.1719 269.076 27.7031 265.888 30.8438ZM246.013 68.7656C238.747 59.5312 239.357 54.0938 243.904 50.5312C248.544 46.875 257.31 44.9531 266.31 42.9375C269.263 42.2812 272.263 41.625 275.122 40.875C269.591 59.8594 259.044 85.5 246.013 68.7656ZM296.921 35.1562C295.234 32.8125 292.749 33.2812 290.687 34.7344C289.703 35.4375 288.859 36.375 288.249 37.2656C287.593 38.25 287.218 39.3281 287.312 40.1719C287.406 41.3906 288.249 42.1406 290.031 41.9531C293.218 41.625 296.031 39.4219 297.859 37.5469C297.624 40.5469 297.953 41.8125 299.359 42C300.39 42.1875 301.749 41.3906 303.859 40.1719C305.312 39.3281 307.14 38.25 309.437 37.125C309.906 36.8906 310.14 36.3281 309.906 35.8594C309.671 35.3906 309.062 35.1562 308.593 35.3906C306.249 36.5625 304.328 37.6406 302.874 38.4844C301.14 39.5156 300.015 40.1719 299.64 40.125C299.406 40.0781 299.593 38.5781 300.109 34.6406C300.156 34.2656 300.015 33.8906 299.687 33.7031C299.265 33.4219 298.656 33.5156 298.374 33.9375C298.374 33.9375 297.906 34.6406 297.062 35.5312C297.062 35.3906 297.015 35.25 296.921 35.1562ZM296.031 36.6562C294.484 38.2031 292.281 39.7969 289.843 40.0312C289.421 40.0781 289.234 40.0312 289.234 39.9844C289.187 39.5625 289.421 39 289.843 38.3438C290.359 37.5938 291.062 36.8438 291.812 36.3281C293.031 35.4375 294.484 35.0625 295.374 36.2812C295.515 36.5156 295.749 36.6562 296.031 36.6562ZM312.345 38.8125C312.298 38.5312 314.314 36.375 316.423 34.125C317.454 33 318.533 31.875 319.376 30.8438C320.548 30.75 321.72 30.6094 322.704 30.375C322.095 30.9375 321.251 31.7344 320.408 32.8594C317.173 37.0781 312.767 42.7969 313.329 44.5312C313.611 45.375 314.314 45.6562 315.533 45.2812C317.829 44.4844 320.501 43.1719 322.845 41.7656C325.986 39.9375 328.751 37.9688 329.595 37.0312C329.97 36.6094 329.97 36.0469 329.548 35.6719C329.173 35.2969 328.564 35.3438 328.189 35.7188C327.439 36.5625 324.908 38.3906 321.908 40.125C319.751 41.3906 317.361 42.5625 315.298 43.3125C316.048 41.6719 319.376 37.3125 321.954 34.0312C323.126 32.4375 325.939 29.6719 325.189 28.4062C324.861 27.8438 324.345 27.7031 323.689 28.125C323.22 28.4062 322.142 28.6406 320.876 28.7812C321.345 28.0312 321.579 27.3281 321.392 26.8594C321.017 25.8281 319.751 25.5938 317.173 26.5312C315.158 27.2344 314.079 27.8438 313.658 28.3594C312.814 29.2969 313.048 30 314.126 30.5156C314.548 30.75 315.251 30.8438 316.048 30.9375C316.283 30.9375 316.517 30.9375 316.798 30.9375C316.236 31.5469 315.626 32.1562 315.017 32.8125C312.579 35.4375 310.142 38.0156 310.47 39.2812C310.611 39.7969 311.126 40.0781 311.642 39.9375C312.158 39.8438 312.486 39.2812 312.345 38.8125ZM318.533 29.0156C317.689 29.0625 316.892 29.0625 316.189 29.0156H316.142C316.564 28.8281 317.126 28.5938 317.829 28.3125C319.142 27.8438 319.564 27.375 319.564 27.4688C319.658 27.6562 319.236 28.2188 318.533 29.0156Z"/></svg>